<?xml version="1.0" encoding="iso-8859-1"?>
<!-- Uploaded to: SVG Repo, www.svgrepo.com, Generator: SVG Repo Mixer Tools -->
<svg fill="#000000" height="800px" width="800px" version="1.1" id="Capa_1" xmlns="http://www.w3.org/2000/svg" xmlns:xlink="http://www.w3.org/1999/xlink" 
	 viewBox="0 0 408.5 408.5" xml:space="preserve">
<g id="XMLID_831_">
	<path id="XMLID_832_" d="M204.25,0C91.626,0,0,91.626,0,204.25S91.626,408.5,204.25,408.5S408.5,316.874,408.5,204.25
		S316.874,0,204.25,0z M365.441,134.25H198.545l56.694-98.198C304.71,51.078,345.006,87.375,365.441,134.25z M250.439,204.25
		l-23.096,40h-46.189l-23.095-40l23.095-40h46.189L250.439,204.25z M224.277,29.648L140.775,174.19L84.132,76.082
		C115.58,46.591,157.839,28.5,204.25,28.5C211.022,28.5,217.702,28.898,224.277,29.648z M63.091,99.67l83.423,144.58H33.096
		c-3.003-12.854-4.596-26.244-4.596-40C28.5,165.105,41.369,128.913,63.091,99.67z M43.059,274.25h166.897l-56.695,98.198
		C103.79,357.422,63.494,321.125,43.059,274.25z M184.223,378.852l83.501-144.543l56.643,98.108
		C292.92,361.909,250.661,380,204.25,380C197.477,380,190.798,379.602,184.223,378.852z M345.409,308.831L261.985,164.25h113.419
		c3.003,12.854,4.596,26.244,4.596,40C380,243.395,367.131,279.587,345.409,308.831z"/>
</g>
</svg>